<?xml version="1.0" encoding="utf-8" standalone="no"?>
<!DOCTYPE svg PUBLIC "-//W3C//DTD SVG 1.1//EN"
  "http://www.w3.org/Graphics/SVG/1.1/DTD/svg11.dtd">
<svg height="345.6pt" version="1.1" viewBox="0 0 460.8 345.6" width="460.8pt" xmlns="http://www.w3.org/2000/svg" xmlns:xlink="http://www.w3.org/1999/xlink">
 <metadata>
  <rdf:RDF xmlns:cc="http://creativecommons.org/ns#" xmlns:dc="http://purl.org/dc/elements/1.1/" xmlns:rdf="http://www.w3.org/1999/02/22-rdf-syntax-ns#">
   <cc:Work>
    <dc:type rdf:resource="http://purl.org/dc/dcmitype/StillImage"/>
    <dc:date>2023-07-04T13:55:41.643976</dc:date>
    <dc:format>image/svg+xml</dc:format>
    <dc:creator>
     <cc:Agent>
      <dc:title>Matplotlib v3.4.0, https://matplotlib.org/</dc:title>
     </cc:Agent>
    </dc:creator>
   </cc:Work>
  </rdf:RDF>
 </metadata>
 <defs>
  <style type="text/css">*{stroke-linecap:butt;stroke-linejoin:round;}</style>
 </defs>
 <g id="figure_1">
  <g id="patch_1">
   <path d="M 0 345.6 
L 460.8 345.6 
L 460.8 0 
L 0 0 
z
" style="fill:#ffffff;"/>
  </g>
  <g id="axes_1">
   <g id="patch_2">
    <path d="M 57.6 307.584 
L 162.635294 307.584 
L 162.635294 41.472 
L 57.6 41.472 
z
" style="fill:#ffffff;"/>
   </g>
   <g id="matplotlib.axis_1">
    <g id="xtick_1">
     <g id="line2d_1">
      <defs>
       <path d="M 0 0 
L 0 3.5 
" id="md5145828a6" style="stroke:#000000;stroke-width:0.8;"/>
      </defs>
      <g>
       <use style="stroke:#000000;stroke-width:0.8;" x="62.374332" xlink:href="#md5145828a6" y="307.584"/>
      </g>
     </g>
     <g id="text_1">
      <!-- −0.5 -->
      <g transform="translate(50.232925 322.182437)scale(0.1 -0.1)">
       <defs>
        <path d="M 678 2272 
L 4684 2272 
L 4684 1741 
L 678 1741 
L 678 2272 
z
" id="DejaVuSans-2212" transform="scale(0.015625)"/>
        <path d="M 2034 4250 
Q 1547 4250 1301 3770 
Q 1056 3291 1056 2328 
Q 1056 1369 1301 889 
Q 1547 409 2034 409 
Q 2525 409 2770 889 
Q 3016 1369 3016 2328 
Q 3016 3291 2770 3770 
Q 2525 4250 2034 4250 
z
M 2034 4750 
Q 2819 4750 3233 4129 
Q 3647 3509 3647 2328 
Q 3647 1150 3233 529 
Q 2819 -91 2034 -91 
Q 1250 -91 836 529 
Q 422 1150 422 2328 
Q 422 3509 836 4129 
Q 1250 4750 2034 4750 
z
" id="DejaVuSans-30" transform="scale(0.015625)"/>
        <path d="M 684 794 
L 1344 794 
L 1344 0 
L 684 0 
L 684 794 
z
" id="DejaVuSans-2e" transform="scale(0.015625)"/>
        <path d="M 691 4666 
L 3169 4666 
L 3169 4134 
L 1269 4134 
L 1269 2991 
Q 1406 3038 1543 3061 
Q 1681 3084 1819 3084 
Q 2600 3084 3056 2656 
Q 3513 2228 3513 1497 
Q 3513 744 3044 326 
Q 2575 -91 1722 -91 
Q 1428 -91 1123 -41 
Q 819 9 494 109 
L 494 744 
Q 775 591 1075 516 
Q 1375 441 1709 441 
Q 2250 441 2565 725 
Q 2881 1009 2881 1497 
Q 2881 1984 2565 2268 
Q 2250 2553 1709 2553 
Q 1456 2553 1204 2497 
Q 953 2441 691 2322 
L 691 4666 
z
" id="DejaVuSans-35" transform="scale(0.015625)"/>
       </defs>
       <use xlink:href="#DejaVuSans-2212"/>
       <use x="83.789062" xlink:href="#DejaVuSans-30"/>
       <use x="147.412109" xlink:href="#DejaVuSans-2e"/>
       <use x="179.199219" xlink:href="#DejaVuSans-35"/>
      </g>
     </g>
    </g>
    <g id="xtick_2">
     <g id="line2d_2">
      <g>
       <use style="stroke:#000000;stroke-width:0.8;" x="110.117647" xlink:href="#md5145828a6" y="307.584"/>
      </g>
     </g>
     <g id="text_2">
      <!-- 0.0 -->
      <g transform="translate(102.166085 322.182437)scale(0.1 -0.1)">
       <use xlink:href="#DejaVuSans-30"/>
       <use x="63.623047" xlink:href="#DejaVuSans-2e"/>
       <use x="95.410156" xlink:href="#DejaVuSans-30"/>
      </g>
     </g>
    </g>
    <g id="xtick_3">
     <g id="line2d_3">
      <g>
       <use style="stroke:#000000;stroke-width:0.8;" x="157.860963" xlink:href="#md5145828a6" y="307.584"/>
      </g>
     </g>
     <g id="text_3">
      <!-- 0.5 -->
      <g transform="translate(149.9094 322.182437)scale(0.1 -0.1)">
       <use xlink:href="#DejaVuSans-30"/>
       <use x="63.623047" xlink:href="#DejaVuSans-2e"/>
       <use x="95.410156" xlink:href="#DejaVuSans-35"/>
      </g>
     </g>
    </g>
    <g id="text_4">
     <!-- $x/L$ -->
     <g transform="translate(102.667647 335.860562)scale(0.1 -0.1)">
      <defs>
       <path d="M 3841 3500 
L 2234 1784 
L 3219 0 
L 2559 0 
L 1819 1388 
L 531 0 
L -166 0 
L 1556 1844 
L 641 3500 
L 1300 3500 
L 1972 2234 
L 3144 3500 
L 3841 3500 
z
" id="DejaVuSans-Oblique-78" transform="scale(0.015625)"/>
       <path d="M 1625 4666 
L 2156 4666 
L 531 -594 
L 0 -594 
L 1625 4666 
z
" id="DejaVuSans-2f" transform="scale(0.015625)"/>
       <path d="M 1075 4666 
L 1709 4666 
L 909 525 
L 3181 525 
L 3078 0 
L 172 0 
L 1075 4666 
z
" id="DejaVuSans-Oblique-4c" transform="scale(0.015625)"/>
      </defs>
      <use transform="translate(0 0.09375)" xlink:href="#DejaVuSans-Oblique-78"/>
      <use transform="translate(59.179688 0.09375)" xlink:href="#DejaVuSans-2f"/>
      <use transform="translate(92.871094 0.09375)" xlink:href="#DejaVuSans-Oblique-4c"/>
     </g>
    </g>
   </g>
   <g id="matplotlib.axis_2">
    <g id="ytick_1">
     <g id="line2d_4">
      <defs>
       <path d="M 0 0 
L -3.5 0 
" id="m3515bf0cae" style="stroke:#000000;stroke-width:0.8;"/>
      </defs>
      <g>
       <use style="stroke:#000000;stroke-width:0.8;" x="57.6" xlink:href="#m3515bf0cae" y="295.488"/>
      </g>
     </g>
     <g id="text_5">
      <!-- 0 -->
      <g transform="translate(44.2375 299.287219)scale(0.1 -0.1)">
       <use xlink:href="#DejaVuSans-30"/>
      </g>
     </g>
    </g>
    <g id="ytick_2">
     <g id="line2d_5">
      <g>
       <use style="stroke:#000000;stroke-width:0.8;" x="57.6" xlink:href="#m3515bf0cae" y="259.968465"/>
      </g>
     </g>
     <g id="text_6">
      <!-- 5 -->
      <g transform="translate(44.2375 263.767684)scale(0.1 -0.1)">
       <use xlink:href="#DejaVuSans-35"/>
      </g>
     </g>
    </g>
    <g id="ytick_3">
     <g id="line2d_6">
      <g>
       <use style="stroke:#000000;stroke-width:0.8;" x="57.6" xlink:href="#m3515bf0cae" y="224.44893"/>
      </g>
     </g>
     <g id="text_7">
      <!-- 10 -->
      <g transform="translate(37.875 228.248149)scale(0.1 -0.1)">
       <defs>
        <path d="M 794 531 
L 1825 531 
L 1825 4091 
L 703 3866 
L 703 4441 
L 1819 4666 
L 2450 4666 
L 2450 531 
L 3481 531 
L 3481 0 
L 794 0 
L 794 531 
z
" id="DejaVuSans-31" transform="scale(0.015625)"/>
       </defs>
       <use xlink:href="#DejaVuSans-31"/>
       <use x="63.623047" xlink:href="#DejaVuSans-30"/>
      </g>
     </g>
    </g>
    <g id="ytick_4">
     <g id="line2d_7">
      <g>
       <use style="stroke:#000000;stroke-width:0.8;" x="57.6" xlink:href="#m3515bf0cae" y="188.929395"/>
      </g>
     </g>
     <g id="text_8">
      <!-- 15 -->
      <g transform="translate(37.875 192.728614)scale(0.1 -0.1)">
       <use xlink:href="#DejaVuSans-31"/>
       <use x="63.623047" xlink:href="#DejaVuSans-35"/>
      </g>
     </g>
    </g>
    <g id="ytick_5">
     <g id="line2d_8">
      <g>
       <use style="stroke:#000000;stroke-width:0.8;" x="57.6" xlink:href="#m3515bf0cae" y="153.409861"/>
      </g>
     </g>
     <g id="text_9">
      <!-- 20 -->
      <g transform="translate(37.875 157.209079)scale(0.1 -0.1)">
       <defs>
        <path d="M 1228 531 
L 3431 531 
L 3431 0 
L 469 0 
L 469 531 
Q 828 903 1448 1529 
Q 2069 2156 2228 2338 
Q 2531 2678 2651 2914 
Q 2772 3150 2772 3378 
Q 2772 3750 2511 3984 
Q 2250 4219 1831 4219 
Q 1534 4219 1204 4116 
Q 875 4013 500 3803 
L 500 4441 
Q 881 4594 1212 4672 
Q 1544 4750 1819 4750 
Q 2544 4750 2975 4387 
Q 3406 4025 3406 3419 
Q 3406 3131 3298 2873 
Q 3191 2616 2906 2266 
Q 2828 2175 2409 1742 
Q 1991 1309 1228 531 
z
" id="DejaVuSans-32" transform="scale(0.015625)"/>
       </defs>
       <use xlink:href="#DejaVuSans-32"/>
       <use x="63.623047" xlink:href="#DejaVuSans-30"/>
      </g>
     </g>
    </g>
    <g id="ytick_6">
     <g id="line2d_9">
      <g>
       <use style="stroke:#000000;stroke-width:0.8;" x="57.6" xlink:href="#m3515bf0cae" y="117.890326"/>
      </g>
     </g>
     <g id="text_10">
      <!-- 25 -->
      <g transform="translate(37.875 121.689544)scale(0.1 -0.1)">
       <use xlink:href="#DejaVuSans-32"/>
       <use x="63.623047" xlink:href="#DejaVuSans-35"/>
      </g>
     </g>
    </g>
    <g id="ytick_7">
     <g id="line2d_10">
      <g>
       <use style="stroke:#000000;stroke-width:0.8;" x="57.6" xlink:href="#m3515bf0cae" y="82.370791"/>
      </g>
     </g>
     <g id="text_11">
      <!-- 30 -->
      <g transform="translate(37.875 86.17001)scale(0.1 -0.1)">
       <defs>
        <path d="M 2597 2516 
Q 3050 2419 3304 2112 
Q 3559 1806 3559 1356 
Q 3559 666 3084 287 
Q 2609 -91 1734 -91 
Q 1441 -91 1130 -33 
Q 819 25 488 141 
L 488 750 
Q 750 597 1062 519 
Q 1375 441 1716 441 
Q 2309 441 2620 675 
Q 2931 909 2931 1356 
Q 2931 1769 2642 2001 
Q 2353 2234 1838 2234 
L 1294 2234 
L 1294 2753 
L 1863 2753 
Q 2328 2753 2575 2939 
Q 2822 3125 2822 3475 
Q 2822 3834 2567 4026 
Q 2313 4219 1838 4219 
Q 1578 4219 1281 4162 
Q 984 4106 628 3988 
L 628 4550 
Q 988 4650 1302 4700 
Q 1616 4750 1894 4750 
Q 2613 4750 3031 4423 
Q 3450 4097 3450 3541 
Q 3450 3153 3228 2886 
Q 3006 2619 2597 2516 
z
" id="DejaVuSans-33" transform="scale(0.015625)"/>
       </defs>
       <use xlink:href="#DejaVuSans-33"/>
       <use x="63.623047" xlink:href="#DejaVuSans-30"/>
      </g>
     </g>
    </g>
    <g id="ytick_8">
     <g id="line2d_11">
      <g>
       <use style="stroke:#000000;stroke-width:0.8;" x="57.6" xlink:href="#m3515bf0cae" y="46.851256"/>
      </g>
     </g>
     <g id="text_12">
      <!-- 35 -->
      <g transform="translate(37.875 50.650475)scale(0.1 -0.1)">
       <use xlink:href="#DejaVuSans-33"/>
       <use x="63.623047" xlink:href="#DejaVuSans-35"/>
      </g>
     </g>
    </g>
    <g id="text_13">
     <!-- $P(x) \times L$ -->
     <g transform="translate(31.795312 193.328)rotate(-90)scale(0.1 -0.1)">
      <defs>
       <path d="M 1081 4666 
L 2541 4666 
Q 3178 4666 3512 4369 
Q 3847 4072 3847 3500 
Q 3847 2731 3353 2303 
Q 2859 1875 1966 1875 
L 1172 1875 
L 806 0 
L 172 0 
L 1081 4666 
z
M 1613 4147 
L 1275 2394 
L 2069 2394 
Q 2606 2394 2893 2669 
Q 3181 2944 3181 3456 
Q 3181 3784 2986 3965 
Q 2791 4147 2438 4147 
L 1613 4147 
z
" id="DejaVuSans-Oblique-50" transform="scale(0.015625)"/>
       <path d="M 1984 4856 
Q 1566 4138 1362 3434 
Q 1159 2731 1159 2009 
Q 1159 1288 1364 580 
Q 1569 -128 1984 -844 
L 1484 -844 
Q 1016 -109 783 600 
Q 550 1309 550 2009 
Q 550 2706 781 3412 
Q 1013 4119 1484 4856 
L 1984 4856 
z
" id="DejaVuSans-28" transform="scale(0.015625)"/>
       <path d="M 513 4856 
L 1013 4856 
Q 1481 4119 1714 3412 
Q 1947 2706 1947 2009 
Q 1947 1309 1714 600 
Q 1481 -109 1013 -844 
L 513 -844 
Q 928 -128 1133 580 
Q 1338 1288 1338 2009 
Q 1338 2731 1133 3434 
Q 928 4138 513 4856 
z
" id="DejaVuSans-29" transform="scale(0.015625)"/>
       <path d="M 4488 3438 
L 3059 2003 
L 4488 575 
L 4116 197 
L 2681 1631 
L 1247 197 
L 878 575 
L 2303 2003 
L 878 3438 
L 1247 3816 
L 2681 2381 
L 4116 3816 
L 4488 3438 
z
" id="DejaVuSans-d7" transform="scale(0.015625)"/>
      </defs>
      <use transform="translate(0 0.125)" xlink:href="#DejaVuSans-Oblique-50"/>
      <use transform="translate(60.302734 0.125)" xlink:href="#DejaVuSans-28"/>
      <use transform="translate(99.316406 0.125)" xlink:href="#DejaVuSans-Oblique-78"/>
      <use transform="translate(158.496094 0.125)" xlink:href="#DejaVuSans-29"/>
      <use transform="translate(216.992188 0.125)" xlink:href="#DejaVuSans-d7"/>
      <use transform="translate(320.263672 0.125)" xlink:href="#DejaVuSans-Oblique-4c"/>
     </g>
    </g>
   </g>
   <g id="line2d_12">
    <path clip-path="url(#p6787c9e551)" d="M 62.374332 295.488 
L 102.650593 295.488 
L 102.651547 281.257383 
L 102.761357 295.488 
L 102.962834 295.488 
L 102.963789 281.257383 
L 103.073598 295.488 
L 103.133755 295.488 
L 103.199641 281.257383 
L 103.244519 295.488 
L 103.30945 295.488 
L 103.381065 281.257383 
L 103.420215 295.488 
L 103.427854 295.488 
L 103.490875 281.257383 
L 103.538618 295.488 
L 103.551031 295.488 
L 103.656067 281.257383 
L 103.661796 295.488 
L 103.702855 295.488 
L 103.804071 281.257383 
L 103.81362 295.488 
L 103.833672 295.488 
L 103.927249 281.257383 
L 103.944436 295.488 
L 103.945391 295.488 
L 104.054246 281.257383 
L 104.056156 295.488 
L 104.076208 295.488 
L 104.187927 281.257383 
L 104.282459 267.026836 
L 104.299647 295.488 
L 104.300601 295.488 
L 104.335932 267.026836 
L 104.412321 281.257383 
L 104.475342 252.796219 
L 104.52213 295.488 
L 104.593745 267.026836 
L 104.632895 281.257383 
L 104.63385 281.257383 
L 104.640534 267.026836 
L 104.744614 295.488 
L 104.756073 252.796219 
L 104.855379 295.488 
L 104.856334 295.488 
L 104.963279 252.796219 
L 104.968053 281.257383 
L 104.969008 281.257383 
L 105.012932 238.565672 
L 105.080727 295.488 
L 105.175259 195.874175 
L 105.191492 267.026836 
L 105.299392 295.488 
L 105.226822 238.565672 
L 105.302256 281.257383 
L 105.303211 281.257383 
L 105.413021 295.488 
L 105.362413 238.565672 
L 105.413976 281.257383 
L 105.415885 281.257383 
L 105.511372 295.488 
L 105.463629 224.335268 
L 105.525695 267.026836 
L 105.609723 224.335268 
L 105.527605 295.488 
L 105.636459 238.565672 
L 105.733856 295.488 
L 105.66988 224.335268 
L 105.748179 267.026836 
L 105.839846 295.488 
L 105.85035 195.874175 
L 105.859898 281.257383 
L 105.938197 210.104721 
L 105.863718 295.488 
L 105.970663 238.565672 
L 106.077608 295.488 
L 106.027955 195.874175 
L 106.081427 252.796219 
L 106.082382 252.796219 
L 106.164501 295.488 
L 106.123441 153.181825 
L 106.193147 281.257383 
L 106.292453 181.643628 
L 106.23898 295.488 
L 106.304866 252.796219 
L 106.407037 295.488 
L 106.320144 181.643628 
L 106.414676 267.026836 
L 106.494884 167.413082 
L 106.418495 295.488 
L 106.52544 195.874175 
L 106.583687 295.488 
L 106.545492 167.413082 
L 106.636204 238.565672 
L 106.637159 238.565672 
L 106.738375 295.488 
L 106.639069 153.181825 
L 106.747924 252.796219 
L 106.858688 96.259639 
L 106.769886 295.488 
L 106.859643 195.874175 
L 106.943671 281.257383 
L 106.878741 167.413082 
L 106.970408 195.874175 
L 106.971363 195.874175 
L 107.017196 295.488 
L 107.02197 153.181825 
L 107.082127 195.874175 
L 107.181433 124.720732 
L 107.160426 295.488 
L 107.190027 195.874175 
L 107.299837 281.257383 
L 107.275965 138.951279 
L 107.300791 210.104721 
L 107.370497 124.720732 
L 107.331347 281.257383 
L 107.410601 195.874175 
L 107.515636 295.488 
L 107.498449 96.259639 
L 107.52232 267.026836 
L 107.565289 110.490186 
L 107.601574 281.257383 
L 107.633085 224.335268 
L 107.719023 281.257383 
L 107.642634 124.720732 
L 107.743849 267.026836 
L 107.84984 124.720732 
L 107.859388 153.181825 
L 107.970153 281.257383 
L 107.91477 124.720732 
L 107.971108 252.796219 
L 108.027445 82.029093 
L 107.994979 281.257383 
L 108.081872 181.643628 
L 108.089511 281.257383 
L 108.100015 96.259639 
L 108.194546 252.796219 
L 108.287168 110.490186 
L 108.227012 281.257383 
L 108.306266 167.413082 
L 108.388384 267.026836 
L 108.328228 67.798546 
L 108.41703 224.335268 
L 108.49151 96.259639 
L 108.460954 281.257383 
L 108.527795 210.104721 
L 108.52875 210.104721 
L 108.63283 124.720732 
L 108.538298 295.488 
L 108.639514 153.181825 
L 108.743594 281.257383 
L 108.693941 96.259639 
L 108.750279 181.643628 
L 108.84863 110.490186 
L 108.838126 295.488 
L 108.855314 138.951279 
L 108.856269 281.257383 
L 108.905922 96.259639 
L 108.966078 224.335268 
L 109.073023 124.720732 
L 108.98613 267.026836 
L 109.077798 153.181825 
L 109.179968 267.026836 
L 109.094985 67.798546 
L 109.191427 195.874175 
L 109.290733 281.257383 
L 109.302191 124.720732 
L 109.395768 281.257383 
L 109.413911 238.565672 
L 109.464519 138.951279 
L 109.447331 281.257383 
L 109.524675 224.335268 
L 109.564779 295.488 
L 109.603929 96.259639 
L 109.63353 238.565672 
L 109.718513 138.951279 
L 109.639259 281.257383 
L 109.744294 238.565672 
L 109.80827 110.490186 
L 109.749069 281.257383 
L 109.858878 167.413082 
L 109.960094 281.257383 
L 109.863653 138.951279 
L 109.970598 238.565672 
L 110.011657 138.951279 
L 109.974417 281.257383 
L 110.081362 195.874175 
L 110.141519 295.488 
L 110.085182 124.720732 
L 110.192127 210.104721 
L 110.267561 124.720732 
L 110.225547 281.257383 
L 110.300981 238.565672 
L 110.391694 281.257383 
L 110.317214 124.720732 
L 110.408881 238.565672 
L 110.438482 110.490186 
L 110.419385 281.257383 
L 110.519646 210.104721 
L 110.546382 124.720732 
L 110.521556 267.026836 
L 110.627546 195.874175 
L 110.697251 281.257383 
L 110.723987 138.951279 
L 110.739265 238.565672 
L 110.822338 96.259639 
L 110.753588 295.488 
L 110.85003 195.874175 
L 110.935967 281.257383 
L 110.888224 124.720732 
L 110.961749 267.026836 
L 111.055326 96.259639 
L 111.074423 138.951279 
L 111.109753 295.488 
L 111.090656 110.490186 
L 111.187097 224.335268 
L 111.292133 110.490186 
L 111.202375 281.257383 
L 111.298817 153.181825 
L 111.398123 281.257383 
L 111.333192 110.490186 
L 111.409581 195.874175 
L 111.414356 82.029093 
L 111.411491 267.026836 
L 111.521301 153.181825 
L 111.623471 281.257383 
L 111.553766 110.490186 
L 111.632065 195.874175 
L 111.662621 67.798546 
L 111.657846 267.026836 
L 111.741875 195.874175 
L 111.837361 267.026836 
L 111.796302 110.490186 
L 111.852639 252.796219 
L 111.855504 96.259639 
L 111.878421 281.257383 
L 111.964359 181.643628 
L 111.993959 295.488 
L 111.971997 124.720732 
L 112.075123 224.335268 
L 112.13146 110.490186 
L 112.145783 281.257383 
L 112.185887 224.335268 
L 112.224082 96.259639 
L 112.191617 281.257383 
L 112.292833 238.565672 
L 112.293787 281.257383 
L 112.392139 53.568 
L 112.400732 210.104721 
L 112.495264 295.488 
L 112.512452 110.490186 
L 112.595525 281.257383 
L 112.571653 96.259639 
L 112.624171 210.104721 
L 112.699606 110.490186 
L 112.642314 281.257383 
L 112.734936 195.874175 
L 112.73589 195.874175 
L 112.811325 281.257383 
L 112.815144 110.490186 
L 112.846655 195.874175 
L 112.84761 195.874175 
L 112.88485 124.720732 
L 112.957419 281.257383 
L 113.043357 110.490186 
L 113.050041 295.488 
L 113.068184 224.335268 
L 113.135979 138.951279 
L 113.13407 281.257383 
L 113.178948 210.104721 
L 113.199001 295.488 
L 113.262022 124.720732 
L 113.288758 281.257383 
L 113.289713 153.181825 
L 113.392839 295.488 
L 113.399523 238.565672 
L 113.495964 167.413082 
L 113.415755 295.488 
L 113.508377 238.565672 
L 113.617232 295.488 
L 113.586676 124.720732 
L 113.619142 238.565672 
L 113.621052 238.565672 
L 113.727042 295.488 
L 113.635375 181.643628 
L 113.730861 238.565672 
L 113.737545 167.413082 
L 113.798657 295.488 
L 113.841626 210.104721 
L 113.943796 295.488 
L 113.936157 153.181825 
L 113.95239 281.257383 
L 113.960029 153.181825 
L 113.964803 295.488 
L 114.06411 210.104721 
L 114.133815 295.488 
L 114.140499 195.874175 
L 114.175829 252.796219 
L 114.27609 295.488 
L 114.221662 195.874175 
L 114.286593 252.796219 
L 114.287548 252.796219 
L 114.367757 195.874175 
L 114.397358 295.488 
L 114.48998 224.335268 
L 114.508122 252.796219 
L 114.613158 295.488 
L 114.555866 210.104721 
L 114.618887 281.257383 
L 114.712464 238.565672 
L 114.634165 295.488 
L 114.729651 267.026836 
L 114.838506 295.488 
L 114.766891 224.335268 
L 114.839461 281.257383 
L 114.894843 224.335268 
L 114.84519 295.488 
L 114.950225 281.257383 
L 114.952135 281.257383 
L 114.984601 238.565672 
L 115.063855 295.488 
L 115.149793 252.796219 
L 115.174619 295.488 
L 115.180348 295.488 
L 115.290158 252.796219 
L 115.291113 267.026836 
L 115.297797 252.796219 
L 115.401877 295.488 
L 115.45344 238.565672 
L 115.513597 281.257383 
L 115.528874 252.796219 
L 115.625316 295.488 
L 115.729396 267.026836 
L 115.73608 295.488 
L 115.793372 252.796219 
L 115.846845 295.488 
L 115.84971 295.488 
L 115.926099 267.026836 
L 115.960474 281.257383 
L 116.072193 295.488 
L 116.081742 295.488 
L 116.173409 267.026836 
L 116.192507 295.488 
L 116.195371 295.488 
L 116.295632 281.257383 
L 116.306136 295.488 
L 116.313775 295.488 
L 116.407351 281.257383 
L 116.424539 295.488 
L 116.428359 295.488 
L 116.525755 281.257383 
L 116.539123 295.488 
L 116.553446 295.488 
L 116.652752 281.257383 
L 116.66421 295.488 
L 116.66994 295.488 
L 116.776885 281.257383 
L 116.780704 295.488 
L 116.787388 295.488 
L 116.850409 281.257383 
L 116.898153 295.488 
L 116.932528 295.488 
L 116.98791 281.257383 
L 117.043292 295.488 
L 117.13496 295.488 
L 117.239995 281.257383 
L 117.245724 295.488 
L 117.257182 295.488 
L 117.306836 281.257383 
L 117.367947 295.488 
L 117.467253 295.488 
L 117.468208 281.257383 
L 117.578018 295.488 
L 117.84347 295.488 
L 117.844425 281.257383 
L 117.954235 295.488 
L 157.860963 295.488 
L 157.860963 295.488 
" style="fill:none;stroke:#1f77b4;stroke-linecap:square;stroke-width:1.5;"/>
   </g>
   <g id="patch_3">
    <path d="M 57.6 307.584 
L 57.6 41.472 
" style="fill:none;stroke:#000000;stroke-linecap:square;stroke-linejoin:miter;stroke-width:0.8;"/>
   </g>
   <g id="patch_4">
    <path d="M 162.635294 307.584 
L 162.635294 41.472 
" style="fill:none;stroke:#000000;stroke-linecap:square;stroke-linejoin:miter;stroke-width:0.8;"/>
   </g>
   <g id="patch_5">
    <path d="M 57.6 307.584 
L 162.635294 307.584 
" style="fill:none;stroke:#000000;stroke-linecap:square;stroke-linejoin:miter;stroke-width:0.8;"/>
   </g>
   <g id="patch_6">
    <path d="M 57.6 41.472 
L 162.635294 41.472 
" style="fill:none;stroke:#000000;stroke-linecap:square;stroke-linejoin:miter;stroke-width:0.8;"/>
   </g>
   <g id="text_14">
    <!-- instantaneous distributions of weight=-0.5 -->
    <g transform="translate(-18.216728 35.472)scale(0.12 -0.12)">
     <defs>
      <path d="M 603 3500 
L 1178 3500 
L 1178 0 
L 603 0 
L 603 3500 
z
M 603 4863 
L 1178 4863 
L 1178 4134 
L 603 4134 
L 603 4863 
z
" id="DejaVuSans-69" transform="scale(0.015625)"/>
      <path d="M 3513 2113 
L 3513 0 
L 2938 0 
L 2938 2094 
Q 2938 2591 2744 2837 
Q 2550 3084 2163 3084 
Q 1697 3084 1428 2787 
Q 1159 2491 1159 1978 
L 1159 0 
L 581 0 
L 581 3500 
L 1159 3500 
L 1159 2956 
Q 1366 3272 1645 3428 
Q 1925 3584 2291 3584 
Q 2894 3584 3203 3211 
Q 3513 2838 3513 2113 
z
" id="DejaVuSans-6e" transform="scale(0.015625)"/>
      <path d="M 2834 3397 
L 2834 2853 
Q 2591 2978 2328 3040 
Q 2066 3103 1784 3103 
Q 1356 3103 1142 2972 
Q 928 2841 928 2578 
Q 928 2378 1081 2264 
Q 1234 2150 1697 2047 
L 1894 2003 
Q 2506 1872 2764 1633 
Q 3022 1394 3022 966 
Q 3022 478 2636 193 
Q 2250 -91 1575 -91 
Q 1294 -91 989 -36 
Q 684 19 347 128 
L 347 722 
Q 666 556 975 473 
Q 1284 391 1588 391 
Q 1994 391 2212 530 
Q 2431 669 2431 922 
Q 2431 1156 2273 1281 
Q 2116 1406 1581 1522 
L 1381 1569 
Q 847 1681 609 1914 
Q 372 2147 372 2553 
Q 372 3047 722 3315 
Q 1072 3584 1716 3584 
Q 2034 3584 2315 3537 
Q 2597 3491 2834 3397 
z
" id="DejaVuSans-73" transform="scale(0.015625)"/>
      <path d="M 1172 4494 
L 1172 3500 
L 2356 3500 
L 2356 3053 
L 1172 3053 
L 1172 1153 
Q 1172 725 1289 603 
Q 1406 481 1766 481 
L 2356 481 
L 2356 0 
L 1766 0 
Q 1100 0 847 248 
Q 594 497 594 1153 
L 594 3053 
L 172 3053 
L 172 3500 
L 594 3500 
L 594 4494 
L 1172 4494 
z
" id="DejaVuSans-74" transform="scale(0.015625)"/>
      <path d="M 2194 1759 
Q 1497 1759 1228 1600 
Q 959 1441 959 1056 
Q 959 750 1161 570 
Q 1363 391 1709 391 
Q 2188 391 2477 730 
Q 2766 1069 2766 1631 
L 2766 1759 
L 2194 1759 
z
M 3341 1997 
L 3341 0 
L 2766 0 
L 2766 531 
Q 2569 213 2275 61 
Q 1981 -91 1556 -91 
Q 1019 -91 701 211 
Q 384 513 384 1019 
Q 384 1609 779 1909 
Q 1175 2209 1959 2209 
L 2766 2209 
L 2766 2266 
Q 2766 2663 2505 2880 
Q 2244 3097 1772 3097 
Q 1472 3097 1187 3025 
Q 903 2953 641 2809 
L 641 3341 
Q 956 3463 1253 3523 
Q 1550 3584 1831 3584 
Q 2591 3584 2966 3190 
Q 3341 2797 3341 1997 
z
" id="DejaVuSans-61" transform="scale(0.015625)"/>
      <path d="M 3597 1894 
L 3597 1613 
L 953 1613 
Q 991 1019 1311 708 
Q 1631 397 2203 397 
Q 2534 397 2845 478 
Q 3156 559 3463 722 
L 3463 178 
Q 3153 47 2828 -22 
Q 2503 -91 2169 -91 
Q 1331 -91 842 396 
Q 353 884 353 1716 
Q 353 2575 817 3079 
Q 1281 3584 2069 3584 
Q 2775 3584 3186 3129 
Q 3597 2675 3597 1894 
z
M 3022 2063 
Q 3016 2534 2758 2815 
Q 2500 3097 2075 3097 
Q 1594 3097 1305 2825 
Q 1016 2553 972 2059 
L 3022 2063 
z
" id="DejaVuSans-65" transform="scale(0.015625)"/>
      <path d="M 1959 3097 
Q 1497 3097 1228 2736 
Q 959 2375 959 1747 
Q 959 1119 1226 758 
Q 1494 397 1959 397 
Q 2419 397 2687 759 
Q 2956 1122 2956 1747 
Q 2956 2369 2687 2733 
Q 2419 3097 1959 3097 
z
M 1959 3584 
Q 2709 3584 3137 3096 
Q 3566 2609 3566 1747 
Q 3566 888 3137 398 
Q 2709 -91 1959 -91 
Q 1206 -91 779 398 
Q 353 888 353 1747 
Q 353 2609 779 3096 
Q 1206 3584 1959 3584 
z
" id="DejaVuSans-6f" transform="scale(0.015625)"/>
      <path d="M 544 1381 
L 544 3500 
L 1119 3500 
L 1119 1403 
Q 1119 906 1312 657 
Q 1506 409 1894 409 
Q 2359 409 2629 706 
Q 2900 1003 2900 1516 
L 2900 3500 
L 3475 3500 
L 3475 0 
L 2900 0 
L 2900 538 
Q 2691 219 2414 64 
Q 2138 -91 1772 -91 
Q 1169 -91 856 284 
Q 544 659 544 1381 
z
M 1991 3584 
L 1991 3584 
z
" id="DejaVuSans-75" transform="scale(0.015625)"/>
      <path id="DejaVuSans-20" transform="scale(0.015625)"/>
      <path d="M 2906 2969 
L 2906 4863 
L 3481 4863 
L 3481 0 
L 2906 0 
L 2906 525 
Q 2725 213 2448 61 
Q 2172 -91 1784 -91 
Q 1150 -91 751 415 
Q 353 922 353 1747 
Q 353 2572 751 3078 
Q 1150 3584 1784 3584 
Q 2172 3584 2448 3432 
Q 2725 3281 2906 2969 
z
M 947 1747 
Q 947 1113 1208 752 
Q 1469 391 1925 391 
Q 2381 391 2643 752 
Q 2906 1113 2906 1747 
Q 2906 2381 2643 2742 
Q 2381 3103 1925 3103 
Q 1469 3103 1208 2742 
Q 947 2381 947 1747 
z
" id="DejaVuSans-64" transform="scale(0.015625)"/>
      <path d="M 2631 2963 
Q 2534 3019 2420 3045 
Q 2306 3072 2169 3072 
Q 1681 3072 1420 2755 
Q 1159 2438 1159 1844 
L 1159 0 
L 581 0 
L 581 3500 
L 1159 3500 
L 1159 2956 
Q 1341 3275 1631 3429 
Q 1922 3584 2338 3584 
Q 2397 3584 2469 3576 
Q 2541 3569 2628 3553 
L 2631 2963 
z
" id="DejaVuSans-72" transform="scale(0.015625)"/>
      <path d="M 3116 1747 
Q 3116 2381 2855 2742 
Q 2594 3103 2138 3103 
Q 1681 3103 1420 2742 
Q 1159 2381 1159 1747 
Q 1159 1113 1420 752 
Q 1681 391 2138 391 
Q 2594 391 2855 752 
Q 3116 1113 3116 1747 
z
M 1159 2969 
Q 1341 3281 1617 3432 
Q 1894 3584 2278 3584 
Q 2916 3584 3314 3078 
Q 3713 2572 3713 1747 
Q 3713 922 3314 415 
Q 2916 -91 2278 -91 
Q 1894 -91 1617 61 
Q 1341 213 1159 525 
L 1159 0 
L 581 0 
L 581 4863 
L 1159 4863 
L 1159 2969 
z
" id="DejaVuSans-62" transform="scale(0.015625)"/>
      <path d="M 2375 4863 
L 2375 4384 
L 1825 4384 
Q 1516 4384 1395 4259 
Q 1275 4134 1275 3809 
L 1275 3500 
L 2222 3500 
L 2222 3053 
L 1275 3053 
L 1275 0 
L 697 0 
L 697 3053 
L 147 3053 
L 147 3500 
L 697 3500 
L 697 3744 
Q 697 4328 969 4595 
Q 1241 4863 1831 4863 
L 2375 4863 
z
" id="DejaVuSans-66" transform="scale(0.015625)"/>
      <path d="M 269 3500 
L 844 3500 
L 1563 769 
L 2278 3500 
L 2956 3500 
L 3675 769 
L 4391 3500 
L 4966 3500 
L 4050 0 
L 3372 0 
L 2619 2869 
L 1863 0 
L 1184 0 
L 269 3500 
z
" id="DejaVuSans-77" transform="scale(0.015625)"/>
      <path d="M 2906 1791 
Q 2906 2416 2648 2759 
Q 2391 3103 1925 3103 
Q 1463 3103 1205 2759 
Q 947 2416 947 1791 
Q 947 1169 1205 825 
Q 1463 481 1925 481 
Q 2391 481 2648 825 
Q 2906 1169 2906 1791 
z
M 3481 434 
Q 3481 -459 3084 -895 
Q 2688 -1331 1869 -1331 
Q 1566 -1331 1297 -1286 
Q 1028 -1241 775 -1147 
L 775 -588 
Q 1028 -725 1275 -790 
Q 1522 -856 1778 -856 
Q 2344 -856 2625 -561 
Q 2906 -266 2906 331 
L 2906 616 
Q 2728 306 2450 153 
Q 2172 0 1784 0 
Q 1141 0 747 490 
Q 353 981 353 1791 
Q 353 2603 747 3093 
Q 1141 3584 1784 3584 
Q 2172 3584 2450 3431 
Q 2728 3278 2906 2969 
L 2906 3500 
L 3481 3500 
L 3481 434 
z
" id="DejaVuSans-67" transform="scale(0.015625)"/>
      <path d="M 3513 2113 
L 3513 0 
L 2938 0 
L 2938 2094 
Q 2938 2591 2744 2837 
Q 2550 3084 2163 3084 
Q 1697 3084 1428 2787 
Q 1159 2491 1159 1978 
L 1159 0 
L 581 0 
L 581 4863 
L 1159 4863 
L 1159 2956 
Q 1366 3272 1645 3428 
Q 1925 3584 2291 3584 
Q 2894 3584 3203 3211 
Q 3513 2838 3513 2113 
z
" id="DejaVuSans-68" transform="scale(0.015625)"/>
      <path d="M 678 2906 
L 4684 2906 
L 4684 2381 
L 678 2381 
L 678 2906 
z
M 678 1631 
L 4684 1631 
L 4684 1100 
L 678 1100 
L 678 1631 
z
" id="DejaVuSans-3d" transform="scale(0.015625)"/>
      <path d="M 313 2009 
L 1997 2009 
L 1997 1497 
L 313 1497 
L 313 2009 
z
" id="DejaVuSans-2d" transform="scale(0.015625)"/>
     </defs>
     <use xlink:href="#DejaVuSans-69"/>
     <use x="27.783203" xlink:href="#DejaVuSans-6e"/>
     <use x="91.162109" xlink:href="#DejaVuSans-73"/>
     <use x="143.261719" xlink:href="#DejaVuSans-74"/>
     <use x="182.470703" xlink:href="#DejaVuSans-61"/>
     <use x="243.75" xlink:href="#DejaVuSans-6e"/>
     <use x="307.128906" xlink:href="#DejaVuSans-74"/>
     <use x="346.337891" xlink:href="#DejaVuSans-61"/>
     <use x="407.617188" xlink:href="#DejaVuSans-6e"/>
     <use x="470.996094" xlink:href="#DejaVuSans-65"/>
     <use x="532.519531" xlink:href="#DejaVuSans-6f"/>
     <use x="593.701172" xlink:href="#DejaVuSans-75"/>
     <use x="657.080078" xlink:href="#DejaVuSans-73"/>
     <use x="709.179688" xlink:href="#DejaVuSans-20"/>
     <use x="740.966797" xlink:href="#DejaVuSans-64"/>
     <use x="804.443359" xlink:href="#DejaVuSans-69"/>
     <use x="832.226562" xlink:href="#DejaVuSans-73"/>
     <use x="884.326172" xlink:href="#DejaVuSans-74"/>
     <use x="923.535156" xlink:href="#DejaVuSans-72"/>
     <use x="964.648438" xlink:href="#DejaVuSans-69"/>
     <use x="992.431641" xlink:href="#DejaVuSans-62"/>
     <use x="1055.908203" xlink:href="#DejaVuSans-75"/>
     <use x="1119.287109" xlink:href="#DejaVuSans-74"/>
     <use x="1158.496094" xlink:href="#DejaVuSans-69"/>
     <use x="1186.279297" xlink:href="#DejaVuSans-6f"/>
     <use x="1247.460938" xlink:href="#DejaVuSans-6e"/>
     <use x="1310.839844" xlink:href="#DejaVuSans-73"/>
     <use x="1362.939453" xlink:href="#DejaVuSans-20"/>
     <use x="1394.726562" xlink:href="#DejaVuSans-6f"/>
     <use x="1455.908203" xlink:href="#DejaVuSans-66"/>
     <use x="1491.113281" xlink:href="#DejaVuSans-20"/>
     <use x="1522.900391" xlink:href="#DejaVuSans-77"/>
     <use x="1604.6875" xlink:href="#DejaVuSans-65"/>
     <use x="1666.210938" xlink:href="#DejaVuSans-69"/>
     <use x="1693.994141" xlink:href="#DejaVuSans-67"/>
     <use x="1757.470703" xlink:href="#DejaVuSans-68"/>
     <use x="1820.849609" xlink:href="#DejaVuSans-74"/>
     <use x="1860.058594" xlink:href="#DejaVuSans-3d"/>
     <use x="1943.847656" xlink:href="#DejaVuSans-2d"/>
     <use x="1979.931641" xlink:href="#DejaVuSans-30"/>
     <use x="2043.554688" xlink:href="#DejaVuSans-2e"/>
     <use x="2075.341797" xlink:href="#DejaVuSans-35"/>
    </g>
   </g>
   <g id="legend_1">
    <g id="patch_7">
     <path d="M 82.247794 64.150125 
L 155.635294 64.150125 
Q 157.635294 64.150125 157.635294 62.150125 
L 157.635294 48.472 
Q 157.635294 46.472 155.635294 46.472 
L 82.247794 46.472 
Q 80.247794 46.472 80.247794 48.472 
L 80.247794 62.150125 
Q 80.247794 64.150125 82.247794 64.150125 
z
" style="fill:#ffffff;opacity:0.8;stroke:#cccccc;stroke-linejoin:miter;"/>
    </g>
    <g id="line2d_13">
     <path d="M 84.247794 54.570438 
L 104.247794 54.570438 
" style="fill:none;stroke:#1f77b4;stroke-linecap:square;stroke-width:1.5;"/>
    </g>
    <g id="line2d_14"/>
    <g id="text_15">
     <!-- t=10**5 -->
     <g transform="translate(112.247794 58.070438)scale(0.1 -0.1)">
      <defs>
       <path d="M 3009 3897 
L 1888 3291 
L 3009 2681 
L 2828 2375 
L 1778 3009 
L 1778 1831 
L 1422 1831 
L 1422 3009 
L 372 2375 
L 191 2681 
L 1313 3291 
L 191 3897 
L 372 4206 
L 1422 3572 
L 1422 4750 
L 1778 4750 
L 1778 3572 
L 2828 4206 
L 3009 3897 
z
" id="DejaVuSans-2a" transform="scale(0.015625)"/>
      </defs>
      <use xlink:href="#DejaVuSans-74"/>
      <use x="39.208984" xlink:href="#DejaVuSans-3d"/>
      <use x="122.998047" xlink:href="#DejaVuSans-31"/>
      <use x="186.621094" xlink:href="#DejaVuSans-30"/>
      <use x="250.244141" xlink:href="#DejaVuSans-2a"/>
      <use x="300.244141" xlink:href="#DejaVuSans-2a"/>
      <use x="350.244141" xlink:href="#DejaVuSans-35"/>
     </g>
    </g>
   </g>
  </g>
  <g id="axes_2">
   <g id="patch_8">
    <path d="M 183.642353 307.584 
L 288.677647 307.584 
L 288.677647 41.472 
L 183.642353 41.472 
z
" style="fill:#ffffff;"/>
   </g>
   <g id="matplotlib.axis_3">
    <g id="xtick_4">
     <g id="line2d_15">
      <g>
       <use style="stroke:#000000;stroke-width:0.8;" x="188.416684" xlink:href="#md5145828a6" y="307.584"/>
      </g>
     </g>
     <g id="text_16">
      <!-- −0.5 -->
      <g transform="translate(176.275278 322.182437)scale(0.1 -0.1)">
       <use xlink:href="#DejaVuSans-2212"/>
       <use x="83.789062" xlink:href="#DejaVuSans-30"/>
       <use x="147.412109" xlink:href="#DejaVuSans-2e"/>
       <use x="179.199219" xlink:href="#DejaVuSans-35"/>
      </g>
     </g>
    </g>
    <g id="xtick_5">
     <g id="line2d_16">
      <g>
       <use style="stroke:#000000;stroke-width:0.8;" x="236.16" xlink:href="#md5145828a6" y="307.584"/>
      </g>
     </g>
     <g id="text_17">
      <!-- 0.0 -->
      <g transform="translate(228.208438 322.182437)scale(0.1 -0.1)">
       <use xlink:href="#DejaVuSans-30"/>
       <use x="63.623047" xlink:href="#DejaVuSans-2e"/>
       <use x="95.410156" xlink:href="#DejaVuSans-30"/>
      </g>
     </g>
    </g>
    <g id="xtick_6">
     <g id="line2d_17">
      <g>
       <use style="stroke:#000000;stroke-width:0.8;" x="283.903316" xlink:href="#md5145828a6" y="307.584"/>
      </g>
     </g>
     <g id="text_18">
      <!-- 0.5 -->
      <g transform="translate(275.951753 322.182437)scale(0.1 -0.1)">
       <use xlink:href="#DejaVuSans-30"/>
       <use x="63.623047" xlink:href="#DejaVuSans-2e"/>
       <use x="95.410156" xlink:href="#DejaVuSans-35"/>
      </g>
     </g>
    </g>
    <g id="text_19">
     <!-- $x/L$ -->
     <g transform="translate(228.71 335.860562)scale(0.1 -0.1)">
      <use transform="translate(0 0.09375)" xlink:href="#DejaVuSans-Oblique-78"/>
      <use transform="translate(59.179688 0.09375)" xlink:href="#DejaVuSans-2f"/>
      <use transform="translate(92.871094 0.09375)" xlink:href="#DejaVuSans-Oblique-4c"/>
     </g>
    </g>
   </g>
   <g id="matplotlib.axis_4">
    <g id="ytick_9">
     <g id="line2d_18">
      <g>
       <use style="stroke:#000000;stroke-width:0.8;" x="183.642353" xlink:href="#m3515bf0cae" y="295.488"/>
      </g>
     </g>
     <g id="text_20">
      <!-- 0 -->
      <g transform="translate(170.279853 299.287219)scale(0.1 -0.1)">
       <use xlink:href="#DejaVuSans-30"/>
      </g>
     </g>
    </g>
    <g id="ytick_10">
     <g id="line2d_19">
      <g>
       <use style="stroke:#000000;stroke-width:0.8;" x="183.642353" xlink:href="#m3515bf0cae" y="253.672251"/>
      </g>
     </g>
     <g id="text_21">
      <!-- 5 -->
      <g transform="translate(170.279853 257.471469)scale(0.1 -0.1)">
       <use xlink:href="#DejaVuSans-35"/>
      </g>
     </g>
    </g>
    <g id="ytick_11">
     <g id="line2d_20">
      <g>
       <use style="stroke:#000000;stroke-width:0.8;" x="183.642353" xlink:href="#m3515bf0cae" y="211.856501"/>
      </g>
     </g>
     <g id="text_22">
      <!-- 10 -->
      <g transform="translate(163.917353 215.65572)scale(0.1 -0.1)">
       <use xlink:href="#DejaVuSans-31"/>
       <use x="63.623047" xlink:href="#DejaVuSans-30"/>
      </g>
     </g>
    </g>
    <g id="ytick_12">
     <g id="line2d_21">
      <g>
       <use style="stroke:#000000;stroke-width:0.8;" x="183.642353" xlink:href="#m3515bf0cae" y="170.040752"/>
      </g>
     </g>
     <g id="text_23">
      <!-- 15 -->
      <g transform="translate(163.917353 173.839971)scale(0.1 -0.1)">
       <use xlink:href="#DejaVuSans-31"/>
       <use x="63.623047" xlink:href="#DejaVuSans-35"/>
      </g>
     </g>
    </g>
    <g id="ytick_13">
     <g id="line2d_22">
      <g>
       <use style="stroke:#000000;stroke-width:0.8;" x="183.642353" xlink:href="#m3515bf0cae" y="128.225003"/>
      </g>
     </g>
     <g id="text_24">
      <!-- 20 -->
      <g transform="translate(163.917353 132.024221)scale(0.1 -0.1)">
       <use xlink:href="#DejaVuSans-32"/>
       <use x="63.623047" xlink:href="#DejaVuSans-30"/>
      </g>
     </g>
    </g>
    <g id="ytick_14">
     <g id="line2d_23">
      <g>
       <use style="stroke:#000000;stroke-width:0.8;" x="183.642353" xlink:href="#m3515bf0cae" y="86.409253"/>
      </g>
     </g>
     <g id="text_25">
      <!-- 25 -->
      <g transform="translate(163.917353 90.208472)scale(0.1 -0.1)">
       <use xlink:href="#DejaVuSans-32"/>
       <use x="63.623047" xlink:href="#DejaVuSans-35"/>
      </g>
     </g>
    </g>
    <g id="ytick_15">
     <g id="line2d_24">
      <g>
       <use style="stroke:#000000;stroke-width:0.8;" x="183.642353" xlink:href="#m3515bf0cae" y="44.593504"/>
      </g>
     </g>
     <g id="text_26">
      <!-- 30 -->
      <g transform="translate(163.917353 48.392723)scale(0.1 -0.1)">
       <use xlink:href="#DejaVuSans-33"/>
       <use x="63.623047" xlink:href="#DejaVuSans-30"/>
      </g>
     </g>
    </g>
    <g id="text_27">
     <!-- $P(x) \times L$ -->
     <g transform="translate(157.837665 193.328)rotate(-90)scale(0.1 -0.1)">
      <use transform="translate(0 0.125)" xlink:href="#DejaVuSans-Oblique-50"/>
      <use transform="translate(60.302734 0.125)" xlink:href="#DejaVuSans-28"/>
      <use transform="translate(99.316406 0.125)" xlink:href="#DejaVuSans-Oblique-78"/>
      <use transform="translate(158.496094 0.125)" xlink:href="#DejaVuSans-29"/>
      <use transform="translate(216.992188 0.125)" xlink:href="#DejaVuSans-d7"/>
      <use transform="translate(320.263672 0.125)" xlink:href="#DejaVuSans-Oblique-4c"/>
     </g>
    </g>
   </g>
   <g id="line2d_25">
    <path clip-path="url(#p457129109e)" d="M 188.416684 295.488 
L 229.975331 295.387818 
L 230.085141 295.355149 
L 230.003022 295.38966 
L 230.08705 295.357159 
L 230.08896 295.368049 
L 230.190176 295.298524 
L 230.192086 295.305226 
L 230.526289 295.012216 
L 230.643737 294.849378 
L 230.645647 294.853566 
L 230.646602 294.85943 
L 230.707713 294.67699 
L 230.727766 294.681178 
L 230.854763 294.281624 
L 230.855718 294.295858 
L 231.013271 293.853247 
L 230.869086 294.303234 
L 231.021864 293.875359 
L 231.022819 293.891274 
L 231.106847 293.574143 
L 231.115441 293.621387 
L 231.240529 292.991642 
L 231.242439 293.0151 
L 231.243393 293.088144 
L 231.33888 292.535967 
L 231.346519 292.56344 
L 231.500252 291.532966 
L 231.503117 291.545695 
L 231.504072 291.580879 
L 231.595739 290.895184 
L 231.605288 290.953651 
L 231.607197 290.868213 
L 231.614836 290.890827 
L 231.73515 289.667524 
L 231.736104 289.793004 
L 231.834456 288.762363 
L 231.838275 288.794026 
L 231.966227 287.315246 
L 231.968137 287.330659 
L 231.969092 287.37807 
L 232.05503 286.12997 
L 232.301385 282.256159 
L 232.30234 282.291033 
L 232.305205 282.264606 
L 232.439841 279.39847 
L 232.440796 279.427825 
L 232.444615 279.482604 
L 232.509546 277.979328 
L 232.511456 278.022732 
L 232.653731 274.490723 
L 232.656596 274.565072 
L 232.732985 272.630257 
L 232.73394 272.672658 
L 232.735849 272.676171 
L 234.120406 213.711866 
L 234.122315 213.889834 
L 234.277004 204.175784 
L 234.277959 204.317122 
L 234.353393 199.267452 
L 234.355303 199.456459 
L 234.535772 187.989744 
L 234.644627 180.930409 
L 234.539592 188.048286 
L 234.646537 180.990624 
L 234.779263 172.333928 
L 234.783083 172.363199 
L 234.784038 172.022818 
L 234.94923 159.530781 
L 234.950184 159.583469 
L 234.996973 156.096036 
L 235.165029 142.574495 
L 235.168849 143.007706 
L 235.240464 136.756252 
L 235.241419 137.065688 
L 235.374145 125.73362 
L 235.376055 126.164322 
L 235.467722 118.804751 
L 235.597584 106.396345 
L 235.601403 107.016891 
L 236.032048 66.591097 
L 236.034913 67.119648 
L 236.035867 67.450829 
L 236.117031 57.956981 
L 236.119896 58.079083 
L 236.162865 53.568 
L 236.217292 59.806073 
L 236.219202 59.710734 
L 236.345244 72.374215 
L 236.350973 72.268839 
L 236.354793 73.121044 
L 236.55054 92.112921 
L 236.55245 92.092014 
L 237.80619 187.76143 
L 236.55436 91.916387 
L 237.808099 187.560715 
L 237.809054 187.286403 
L 237.894037 193.81886 
L 237.897857 193.639052 
L 238.352373 221.312213 
L 238.353328 221.042501 
L 238.444995 226.111908 
L 238.593954 233.885289 
L 238.595864 233.768372 
L 238.596819 233.746544 
L 238.627375 235.468099 
L 238.768695 242.612236 
L 238.771559 242.357578 
L 238.859407 246.262333 
L 238.860362 246.262333 
L 238.861317 246.244937 
L 238.892827 247.667927 
L 238.893782 247.663913 
L 239.060884 255.037535 
L 239.062794 255.03419 
L 239.063748 254.907153 
L 239.148732 258.262616 
L 239.150641 258.087576 
L 239.30342 263.881064 
L 239.30533 263.874374 
L 239.999517 282.040055 
L 240.002382 282.014129 
L 240.003337 281.968885 
L 240.08641 283.24761 
L 240.087365 283.236738 
L 240.237279 285.77579 
L 240.089275 283.165902 
L 240.238234 285.732971 
L 240.239189 285.712314 
L 240.3003 286.738974 
L 240.30221 286.723837 
L 240.433982 288.440708 
L 240.44353 288.421272 
L 240.463582 288.629347 
L 240.589625 289.921504 
L 240.591535 289.825002 
L 240.688931 290.76987 
L 240.689886 290.750267 
L 240.69275 290.682082 
L 240.771049 291.357733 
L 240.772004 291.327074 
L 240.886588 292.156514 
L 240.887543 292.125688 
L 241.030773 292.961325 
L 240.893272 292.109605 
L 241.032683 292.924301 
L 241.033638 292.890958 
L 241.125305 293.36708 
L 241.131034 293.343956 
L 241.252302 293.82058 
L 241.258986 293.811531 
L 241.29909 293.932153 
L 241.260896 293.798635 
L 241.300045 293.927461 
L 241.423223 294.381639 
L 241.426088 294.333559 
L 241.522529 294.615339 
L 241.528258 294.594397 
L 241.680082 294.810344 
L 241.532078 294.572118 
L 241.681037 294.789403 
L 241.681992 294.784376 
L 241.765065 294.91639 
L 241.768885 294.903322 
L 241.881559 295.090285 
L 241.771749 294.897961 
L 241.891108 295.078056 
L 241.91116 295.078223 
L 241.94458 295.173547 
L 241.947445 295.173213 
L 242.420104 295.377095 
L 241.952219 295.152103 
L 242.421058 295.371735 
L 242.525139 295.389493 
L 242.530868 295.396362 
L 242.646407 295.440757 
L 242.648317 295.439919 
L 242.820193 295.44461 
L 242.892762 295.437574 
L 242.829741 295.451814 
L 242.930957 295.455164 
L 242.935731 295.460023 
L 243.079916 295.439919 
L 243.19259 295.468734 
L 243.354918 295.47242 
L 243.475231 295.482304 
L 243.477141 295.481299 
L 244.081571 295.488 
L 283.903316 295.488 
L 283.903316 295.488 
" style="fill:none;stroke:#1f77b4;stroke-linecap:square;stroke-width:1.5;"/>
   </g>
   <g id="patch_9">
    <path d="M 183.642353 307.584 
L 183.642353 41.472 
" style="fill:none;stroke:#000000;stroke-linecap:square;stroke-linejoin:miter;stroke-width:0.8;"/>
   </g>
   <g id="patch_10">
    <path d="M 288.677647 307.584 
L 288.677647 41.472 
" style="fill:none;stroke:#000000;stroke-linecap:square;stroke-linejoin:miter;stroke-width:0.8;"/>
   </g>
   <g id="patch_11">
    <path d="M 183.642353 307.584 
L 288.677647 307.584 
" style="fill:none;stroke:#000000;stroke-linecap:square;stroke-linejoin:miter;stroke-width:0.8;"/>
   </g>
   <g id="patch_12">
    <path d="M 183.642353 41.472 
L 288.677647 41.472 
" style="fill:none;stroke:#000000;stroke-linecap:square;stroke-linejoin:miter;stroke-width:0.8;"/>
   </g>
   <g id="text_28">
    <!-- cummulative distributions of weight=-0.5 -->
    <g transform="translate(111.17625 35.472)scale(0.12 -0.12)">
     <defs>
      <path d="M 3122 3366 
L 3122 2828 
Q 2878 2963 2633 3030 
Q 2388 3097 2138 3097 
Q 1578 3097 1268 2742 
Q 959 2388 959 1747 
Q 959 1106 1268 751 
Q 1578 397 2138 397 
Q 2388 397 2633 464 
Q 2878 531 3122 666 
L 3122 134 
Q 2881 22 2623 -34 
Q 2366 -91 2075 -91 
Q 1284 -91 818 406 
Q 353 903 353 1747 
Q 353 2603 823 3093 
Q 1294 3584 2113 3584 
Q 2378 3584 2631 3529 
Q 2884 3475 3122 3366 
z
" id="DejaVuSans-63" transform="scale(0.015625)"/>
      <path d="M 3328 2828 
Q 3544 3216 3844 3400 
Q 4144 3584 4550 3584 
Q 5097 3584 5394 3201 
Q 5691 2819 5691 2113 
L 5691 0 
L 5113 0 
L 5113 2094 
Q 5113 2597 4934 2840 
Q 4756 3084 4391 3084 
Q 3944 3084 3684 2787 
Q 3425 2491 3425 1978 
L 3425 0 
L 2847 0 
L 2847 2094 
Q 2847 2600 2669 2842 
Q 2491 3084 2119 3084 
Q 1678 3084 1418 2786 
Q 1159 2488 1159 1978 
L 1159 0 
L 581 0 
L 581 3500 
L 1159 3500 
L 1159 2956 
Q 1356 3278 1631 3431 
Q 1906 3584 2284 3584 
Q 2666 3584 2933 3390 
Q 3200 3197 3328 2828 
z
" id="DejaVuSans-6d" transform="scale(0.015625)"/>
      <path d="M 603 4863 
L 1178 4863 
L 1178 0 
L 603 0 
L 603 4863 
z
" id="DejaVuSans-6c" transform="scale(0.015625)"/>
      <path d="M 191 3500 
L 800 3500 
L 1894 563 
L 2988 3500 
L 3597 3500 
L 2284 0 
L 1503 0 
L 191 3500 
z
" id="DejaVuSans-76" transform="scale(0.015625)"/>
     </defs>
     <use xlink:href="#DejaVuSans-63"/>
     <use x="54.980469" xlink:href="#DejaVuSans-75"/>
     <use x="118.359375" xlink:href="#DejaVuSans-6d"/>
     <use x="215.771484" xlink:href="#DejaVuSans-6d"/>
     <use x="313.183594" xlink:href="#DejaVuSans-75"/>
     <use x="376.5625" xlink:href="#DejaVuSans-6c"/>
     <use x="404.345703" xlink:href="#DejaVuSans-61"/>
     <use x="465.625" xlink:href="#DejaVuSans-74"/>
     <use x="504.833984" xlink:href="#DejaVuSans-69"/>
     <use x="532.617188" xlink:href="#DejaVuSans-76"/>
     <use x="591.796875" xlink:href="#DejaVuSans-65"/>
     <use x="653.320312" xlink:href="#DejaVuSans-20"/>
     <use x="685.107422" xlink:href="#DejaVuSans-64"/>
     <use x="748.583984" xlink:href="#DejaVuSans-69"/>
     <use x="776.367188" xlink:href="#DejaVuSans-73"/>
     <use x="828.466797" xlink:href="#DejaVuSans-74"/>
     <use x="867.675781" xlink:href="#DejaVuSans-72"/>
     <use x="908.789062" xlink:href="#DejaVuSans-69"/>
     <use x="936.572266" xlink:href="#DejaVuSans-62"/>
     <use x="1000.048828" xlink:href="#DejaVuSans-75"/>
     <use x="1063.427734" xlink:href="#DejaVuSans-74"/>
     <use x="1102.636719" xlink:href="#DejaVuSans-69"/>
     <use x="1130.419922" xlink:href="#DejaVuSans-6f"/>
     <use x="1191.601562" xlink:href="#DejaVuSans-6e"/>
     <use x="1254.980469" xlink:href="#DejaVuSans-73"/>
     <use x="1307.080078" xlink:href="#DejaVuSans-20"/>
     <use x="1338.867188" xlink:href="#DejaVuSans-6f"/>
     <use x="1400.048828" xlink:href="#DejaVuSans-66"/>
     <use x="1435.253906" xlink:href="#DejaVuSans-20"/>
     <use x="1467.041016" xlink:href="#DejaVuSans-77"/>
     <use x="1548.828125" xlink:href="#DejaVuSans-65"/>
     <use x="1610.351562" xlink:href="#DejaVuSans-69"/>
     <use x="1638.134766" xlink:href="#DejaVuSans-67"/>
     <use x="1701.611328" xlink:href="#DejaVuSans-68"/>
     <use x="1764.990234" xlink:href="#DejaVuSans-74"/>
     <use x="1804.199219" xlink:href="#DejaVuSans-3d"/>
     <use x="1887.988281" xlink:href="#DejaVuSans-2d"/>
     <use x="1924.072266" xlink:href="#DejaVuSans-30"/>
     <use x="1987.695312" xlink:href="#DejaVuSans-2e"/>
     <use x="2019.482422" xlink:href="#DejaVuSans-35"/>
    </g>
   </g>
   <g id="legend_2">
    <g id="patch_13">
     <path d="M 190.946397 64.150125 
L 281.677647 64.150125 
Q 283.677647 64.150125 283.677647 62.150125 
L 283.677647 48.472 
Q 283.677647 46.472 281.677647 46.472 
L 190.946397 46.472 
Q 188.946397 46.472 188.946397 48.472 
L 188.946397 62.150125 
Q 188.946397 64.150125 190.946397 64.150125 
z
" style="fill:#ffffff;opacity:0.8;stroke:#cccccc;stroke-linejoin:miter;"/>
    </g>
    <g id="line2d_26">
     <path d="M 192.946397 54.570438 
L 212.946397 54.570438 
" style="fill:none;stroke:#1f77b4;stroke-linecap:square;stroke-width:1.5;"/>
    </g>
    <g id="line2d_27"/>
    <g id="text_29">
     <!-- t=[0,10**5] -->
     <g transform="translate(220.946397 58.070438)scale(0.1 -0.1)">
      <defs>
       <path d="M 550 4863 
L 1875 4863 
L 1875 4416 
L 1125 4416 
L 1125 -397 
L 1875 -397 
L 1875 -844 
L 550 -844 
L 550 4863 
z
" id="DejaVuSans-5b" transform="scale(0.015625)"/>
       <path d="M 750 794 
L 1409 794 
L 1409 256 
L 897 -744 
L 494 -744 
L 750 256 
L 750 794 
z
" id="DejaVuSans-2c" transform="scale(0.015625)"/>
       <path d="M 1947 4863 
L 1947 -844 
L 622 -844 
L 622 -397 
L 1369 -397 
L 1369 4416 
L 622 4416 
L 622 4863 
L 1947 4863 
z
" id="DejaVuSans-5d" transform="scale(0.015625)"/>
      </defs>
      <use xlink:href="#DejaVuSans-74"/>
      <use x="39.208984" xlink:href="#DejaVuSans-3d"/>
      <use x="122.998047" xlink:href="#DejaVuSans-5b"/>
      <use x="162.011719" xlink:href="#DejaVuSans-30"/>
      <use x="225.634766" xlink:href="#DejaVuSans-2c"/>
      <use x="257.421875" xlink:href="#DejaVuSans-31"/>
      <use x="321.044922" xlink:href="#DejaVuSans-30"/>
      <use x="384.667969" xlink:href="#DejaVuSans-2a"/>
      <use x="434.667969" xlink:href="#DejaVuSans-2a"/>
      <use x="484.667969" xlink:href="#DejaVuSans-35"/>
      <use x="548.291016" xlink:href="#DejaVuSans-5d"/>
     </g>
    </g>
   </g>
  </g>
  <g id="axes_3">
   <g id="patch_14">
    <path d="M 309.684706 307.584 
L 414.72 307.584 
L 414.72 41.472 
L 309.684706 41.472 
z
" style="fill:#ffffff;"/>
   </g>
   <g id="matplotlib.axis_5">
    <g id="xtick_7">
     <g id="line2d_28">
      <g>
       <use style="stroke:#000000;stroke-width:0.8;" x="351.27374" xlink:href="#md5145828a6" y="307.584"/>
      </g>
     </g>
     <g id="text_30">
      <!-- $\mathdefault{10^{3}}$ -->
      <g transform="translate(342.47374 322.182437)scale(0.1 -0.1)">
       <use transform="translate(0 0.765625)" xlink:href="#DejaVuSans-31"/>
       <use transform="translate(63.623047 0.765625)" xlink:href="#DejaVuSans-30"/>
       <use transform="translate(128.203125 39.046875)scale(0.7)" xlink:href="#DejaVuSans-33"/>
      </g>
     </g>
    </g>
    <g id="xtick_8">
     <g id="line2d_29">
      <g>
       <use style="stroke:#000000;stroke-width:0.8;" x="400.360011" xlink:href="#md5145828a6" y="307.584"/>
      </g>
     </g>
     <g id="text_31">
      <!-- $\mathdefault{10^{7}}$ -->
      <g transform="translate(391.560011 322.182437)scale(0.1 -0.1)">
       <defs>
        <path d="M 525 4666 
L 3525 4666 
L 3525 4397 
L 1831 0 
L 1172 0 
L 2766 4134 
L 525 4134 
L 525 4666 
z
" id="DejaVuSans-37" transform="scale(0.015625)"/>
       </defs>
       <use transform="translate(0 0.684375)" xlink:href="#DejaVuSans-31"/>
       <use transform="translate(63.623047 0.684375)" xlink:href="#DejaVuSans-30"/>
       <use transform="translate(128.203125 38.965625)scale(0.7)" xlink:href="#DejaVuSans-37"/>
      </g>
     </g>
    </g>
    <g id="text_32">
     <!-- $t$ -->
     <g transform="translate(360.202353 335.860562)scale(0.1 -0.1)">
      <defs>
       <path d="M 2706 3500 
L 2619 3053 
L 1472 3053 
L 1100 1153 
Q 1081 1047 1072 975 
Q 1063 903 1063 863 
Q 1063 663 1183 572 
Q 1303 481 1569 481 
L 2150 481 
L 2053 0 
L 1503 0 
Q 991 0 739 200 
Q 488 400 488 806 
Q 488 878 497 964 
Q 506 1050 525 1153 
L 897 3053 
L 409 3053 
L 500 3500 
L 978 3500 
L 1172 4494 
L 1747 4494 
L 1556 3500 
L 2706 3500 
z
" id="DejaVuSans-Oblique-74" transform="scale(0.015625)"/>
      </defs>
      <use transform="translate(0 0.78125)" xlink:href="#DejaVuSans-Oblique-74"/>
     </g>
    </g>
   </g>
   <g id="matplotlib.axis_6">
    <g id="ytick_16">
     <g id="line2d_30">
      <g>
       <use style="stroke:#000000;stroke-width:0.8;" x="309.684706" xlink:href="#m3515bf0cae" y="269.69419"/>
      </g>
     </g>
     <g id="text_33">
      <!-- $\mathdefault{10^{1}}$ -->
      <g transform="translate(285.084706 273.493409)scale(0.1 -0.1)">
       <use transform="translate(0 0.684375)" xlink:href="#DejaVuSans-31"/>
       <use transform="translate(63.623047 0.684375)" xlink:href="#DejaVuSans-30"/>
       <use transform="translate(128.203125 38.965625)scale(0.7)" xlink:href="#DejaVuSans-31"/>
      </g>
     </g>
    </g>
    <g id="ytick_17">
     <g id="line2d_31">
      <g>
       <use style="stroke:#000000;stroke-width:0.8;" x="309.684706" xlink:href="#m3515bf0cae" y="218.124696"/>
      </g>
     </g>
     <g id="text_34">
      <!-- $\mathdefault{10^{3}}$ -->
      <g transform="translate(285.084706 221.923915)scale(0.1 -0.1)">
       <use transform="translate(0 0.765625)" xlink:href="#DejaVuSans-31"/>
       <use transform="translate(63.623047 0.765625)" xlink:href="#DejaVuSans-30"/>
       <use transform="translate(128.203125 39.046875)scale(0.7)" xlink:href="#DejaVuSans-33"/>
      </g>
     </g>
    </g>
    <g id="ytick_18">
     <g id="line2d_32">
      <g>
       <use style="stroke:#000000;stroke-width:0.8;" x="309.684706" xlink:href="#m3515bf0cae" y="166.555202"/>
      </g>
     </g>
     <g id="text_35">
      <!-- $\mathdefault{10^{5}}$ -->
      <g transform="translate(285.084706 170.354421)scale(0.1 -0.1)">
       <use transform="translate(0 0.684375)" xlink:href="#DejaVuSans-31"/>
       <use transform="translate(63.623047 0.684375)" xlink:href="#DejaVuSans-30"/>
       <use transform="translate(128.203125 38.965625)scale(0.7)" xlink:href="#DejaVuSans-35"/>
      </g>
     </g>
    </g>
    <g id="ytick_19">
     <g id="line2d_33">
      <g>
       <use style="stroke:#000000;stroke-width:0.8;" x="309.684706" xlink:href="#m3515bf0cae" y="114.985708"/>
      </g>
     </g>
     <g id="text_36">
      <!-- $\mathdefault{10^{7}}$ -->
      <g transform="translate(285.084706 118.784927)scale(0.1 -0.1)">
       <use transform="translate(0 0.684375)" xlink:href="#DejaVuSans-31"/>
       <use transform="translate(63.623047 0.684375)" xlink:href="#DejaVuSans-30"/>
       <use transform="translate(128.203125 38.965625)scale(0.7)" xlink:href="#DejaVuSans-37"/>
      </g>
     </g>
    </g>
    <g id="ytick_20">
     <g id="line2d_34">
      <g>
       <use style="stroke:#000000;stroke-width:0.8;" x="309.684706" xlink:href="#m3515bf0cae" y="63.416215"/>
      </g>
     </g>
     <g id="text_37">
      <!-- $\mathdefault{10^{9}}$ -->
      <g transform="translate(285.084706 67.215433)scale(0.1 -0.1)">
       <defs>
        <path d="M 703 97 
L 703 672 
Q 941 559 1184 500 
Q 1428 441 1663 441 
Q 2288 441 2617 861 
Q 2947 1281 2994 2138 
Q 2813 1869 2534 1725 
Q 2256 1581 1919 1581 
Q 1219 1581 811 2004 
Q 403 2428 403 3163 
Q 403 3881 828 4315 
Q 1253 4750 1959 4750 
Q 2769 4750 3195 4129 
Q 3622 3509 3622 2328 
Q 3622 1225 3098 567 
Q 2575 -91 1691 -91 
Q 1453 -91 1209 -44 
Q 966 3 703 97 
z
M 1959 2075 
Q 2384 2075 2632 2365 
Q 2881 2656 2881 3163 
Q 2881 3666 2632 3958 
Q 2384 4250 1959 4250 
Q 1534 4250 1286 3958 
Q 1038 3666 1038 3163 
Q 1038 2656 1286 2365 
Q 1534 2075 1959 2075 
z
" id="DejaVuSans-39" transform="scale(0.015625)"/>
       </defs>
       <use transform="translate(0 0.765625)" xlink:href="#DejaVuSans-31"/>
       <use transform="translate(63.623047 0.765625)" xlink:href="#DejaVuSans-30"/>
       <use transform="translate(128.203125 39.046875)scale(0.7)" xlink:href="#DejaVuSans-39"/>
      </g>
     </g>
    </g>
    <g id="text_38">
     <!-- $\langle x^2 \rangle$ -->
     <g transform="translate(279.005018 183.978)rotate(-90)scale(0.1 -0.1)">
      <defs>
       <path d="M 572 2006 
L 1453 4856 
L 1984 4856 
L 1103 2006 
L 1984 -844 
L 1453 -844 
L 572 2006 
z
" id="DejaVuSans-27e8" transform="scale(0.015625)"/>
       <path d="M 1925 2006 
L 1044 -844 
L 513 -844 
L 1394 2006 
L 513 4856 
L 1044 4856 
L 1925 2006 
z
" id="DejaVuSans-27e9" transform="scale(0.015625)"/>
      </defs>
      <use transform="translate(0 0.765625)" xlink:href="#DejaVuSans-27e8"/>
      <use transform="translate(39.013672 0.765625)" xlink:href="#DejaVuSans-Oblique-78"/>
      <use transform="translate(102.659505 39.046875)scale(0.7)" xlink:href="#DejaVuSans-32"/>
      <use transform="translate(149.930013 0.765625)" xlink:href="#DejaVuSans-27e9"/>
     </g>
    </g>
   </g>
   <g id="line2d_35">
    <path clip-path="url(#p031e5ec109)" d="M 314.459037 295.488 
L 318.153147 286.399742 
L 320.314063 280.548771 
L 321.847257 276.251472 
L 323.036495 272.866703 
L 324.008173 270.052827 
L 324.829715 267.670173 
L 325.541367 265.528879 
L 326.730605 262.060544 
L 327.702283 259.144535 
L 328.523825 256.739445 
L 329.558575 253.627225 
L 330.424715 251.047184 
L 331.396393 248.073852 
L 332.404953 245.023883 
L 333.252685 242.417831 
L 334.118825 239.866617 
L 335.090503 236.942494 
L 336.006374 234.17694 
L 336.946794 231.319488 
L 337.87914 228.518516 
L 338.784613 225.795206 
L 339.700484 223.117189 
L 340.640904 220.307873 
L 341.57325 217.448657 
L 342.506408 214.694529 
L 343.44114 211.883005 
L 344.374058 209.160981 
L 345.300157 206.460906 
L 346.228061 203.750848 
L 347.146823 201.037844 
L 348.068168 198.362321 
L 348.994267 195.71052 
L 349.915299 193.115115 
L 350.840933 190.460328 
L 351.762278 187.816814 
L 352.684288 185.158136 
L 353.609409 182.480587 
L 354.532152 179.869633 
L 355.456388 177.197146 
L 356.380443 174.536496 
L 357.303519 171.844682 
L 358.227708 169.21427 
L 359.151714 166.558663 
L 360.075575 163.957668 
L 360.999347 161.39877 
L 361.922541 158.797924 
L 362.845824 156.146068 
L 363.769174 153.524335 
L 364.692598 150.878699 
L 365.616289 148.259706 
L 366.539934 145.580078 
L 367.463539 142.986791 
L 368.387138 140.349683 
L 369.31058 137.74579 
L 370.234043 135.132188 
L 371.157522 132.564967 
L 372.081033 129.922689 
L 373.004599 127.310331 
L 373.928153 124.761434 
L 374.851696 122.153143 
L 375.775196 119.494017 
L 376.698709 116.865013 
L 377.622225 114.26506 
L 378.545742 111.759772 
L 379.469279 109.219308 
L 380.392797 106.75474 
L 381.316316 104.246601 
L 382.239852 101.767578 
L 383.163376 99.210607 
L 384.086907 96.76735 
L 385.010436 94.344685 
L 385.933961 91.929767 
L 386.857486 89.524054 
L 387.781011 87.107528 
L 388.704536 84.746225 
L 389.628063 82.440031 
L 390.551593 80.162758 
L 391.475121 77.805162 
L 392.398649 75.468525 
L 393.322175 73.170434 
L 394.245702 71.094057 
L 395.16923 69.199546 
L 396.092757 67.392068 
L 397.016284 65.675504 
L 397.939812 64.157506 
L 398.863339 62.759907 
L 399.786866 61.424489 
L 400.710394 60.328645 
L 401.633921 59.245501 
L 402.557449 58.253142 
L 403.480976 57.390017 
L 404.404504 56.575546 
L 405.328031 55.8492 
L 406.251559 55.224026 
L 407.175086 54.662776 
L 408.098614 54.197127 
L 409.022141 53.835322 
L 409.945668 53.568 
" style="fill:none;stroke:#1f77b4;stroke-linecap:square;stroke-width:1.5;"/>
   </g>
   <g id="line2d_36">
    <path clip-path="url(#p031e5ec109)" d="M 373.928153 124.769926 
L 373.956139 124.690117 
L 373.984124 124.610308 
L 374.01211 124.530499 
L 374.040095 124.45069 
L 374.06808 124.370881 
L 374.096066 124.291072 
L 374.124051 124.211262 
L 374.152037 124.131453 
L 374.180022 124.051644 
L 374.208008 123.971835 
L 374.235993 123.892026 
L 374.263978 123.812217 
L 374.291964 123.732408 
L 374.319949 123.652599 
L 374.347935 123.57279 
L 374.37592 123.492981 
L 374.403905 123.413171 
L 374.431891 123.333362 
L 374.459876 123.253553 
L 374.487862 123.173744 
L 374.515847 123.093935 
L 374.543833 123.014126 
L 374.571818 122.934317 
L 374.599803 122.854508 
L 374.627789 122.774699 
L 374.655774 122.69489 
L 374.68376 122.61508 
L 374.711745 122.535271 
L 374.73973 122.455462 
L 374.767716 122.375653 
L 374.795701 122.295844 
L 374.823687 122.216035 
L 374.851672 122.136226 
L 374.879658 122.056417 
L 374.907643 121.976608 
L 374.935628 121.896799 
L 374.963614 121.816989 
L 374.991599 121.73718 
L 375.019585 121.657371 
L 375.04757 121.577562 
L 375.075555 121.497753 
L 375.103541 121.417944 
L 375.131526 121.338135 
L 375.159512 121.258326 
L 375.187497 121.178517 
L 375.215482 121.098707 
L 375.243468 121.018898 
L 375.271453 120.939089 
L 375.299439 120.85928 
L 375.327424 120.779471 
L 375.35541 120.699662 
L 375.383395 120.619853 
L 375.41138 120.540044 
L 375.439366 120.460235 
L 375.467351 120.380426 
L 375.495337 120.300616 
L 375.523322 120.220807 
L 375.551307 120.140998 
L 375.579293 120.061189 
L 375.607278 119.98138 
L 375.635264 119.901571 
L 375.663249 119.821762 
L 375.691235 119.741953 
L 375.71922 119.662144 
L 375.747205 119.582335 
L 375.775191 119.502525 
L 375.803176 119.422716 
L 375.831162 119.342907 
L 375.859147 119.263098 
L 375.887132 119.183289 
L 375.915118 119.10348 
L 375.943103 119.023671 
L 375.971089 118.943862 
L 375.999074 118.864053 
L 376.027059 118.784244 
L 376.055045 118.704434 
L 376.08303 118.624625 
L 376.111016 118.544816 
L 376.139001 118.465007 
L 376.166987 118.385198 
L 376.194972 118.305389 
L 376.222957 118.22558 
L 376.250943 118.145771 
L 376.278928 118.065962 
L 376.306914 117.986153 
L 376.334899 117.906343 
L 376.362884 117.826534 
L 376.39087 117.746725 
L 376.418855 117.666916 
L 376.446841 117.587107 
L 376.474826 117.507298 
L 376.502812 117.427489 
L 376.530797 117.34768 
L 376.558782 117.267871 
L 376.586768 117.188062 
L 376.614753 117.108252 
L 376.642739 117.028443 
L 376.670724 116.948634 
L 376.698709 116.868825 
" style="fill:none;stroke:#ff7f0e;stroke-linecap:square;stroke-width:1.5;"/>
   </g>
   <g id="patch_15">
    <path d="M 309.684706 307.584 
L 309.684706 41.472 
" style="fill:none;stroke:#000000;stroke-linecap:square;stroke-linejoin:miter;stroke-width:0.8;"/>
   </g>
   <g id="patch_16">
    <path d="M 414.72 307.584 
L 414.72 41.472 
" style="fill:none;stroke:#000000;stroke-linecap:square;stroke-linejoin:miter;stroke-width:0.8;"/>
   </g>
   <g id="patch_17">
    <path d="M 309.684706 307.584 
L 414.72 307.584 
" style="fill:none;stroke:#000000;stroke-linecap:square;stroke-linejoin:miter;stroke-width:0.8;"/>
   </g>
   <g id="patch_18">
    <path d="M 309.684706 41.472 
L 414.72 41.472 
" style="fill:none;stroke:#000000;stroke-linecap:square;stroke-linejoin:miter;stroke-width:0.8;"/>
   </g>
   <g id="text_39">
    <!-- varying weights of msd -->
    <g transform="translate(292.039853 35.472)scale(0.12 -0.12)">
     <defs>
      <path d="M 2059 -325 
Q 1816 -950 1584 -1140 
Q 1353 -1331 966 -1331 
L 506 -1331 
L 506 -850 
L 844 -850 
Q 1081 -850 1212 -737 
Q 1344 -625 1503 -206 
L 1606 56 
L 191 3500 
L 800 3500 
L 1894 763 
L 2988 3500 
L 3597 3500 
L 2059 -325 
z
" id="DejaVuSans-79" transform="scale(0.015625)"/>
     </defs>
     <use xlink:href="#DejaVuSans-76"/>
     <use x="59.179688" xlink:href="#DejaVuSans-61"/>
     <use x="120.458984" xlink:href="#DejaVuSans-72"/>
     <use x="161.572266" xlink:href="#DejaVuSans-79"/>
     <use x="220.751953" xlink:href="#DejaVuSans-69"/>
     <use x="248.535156" xlink:href="#DejaVuSans-6e"/>
     <use x="311.914062" xlink:href="#DejaVuSans-67"/>
     <use x="375.390625" xlink:href="#DejaVuSans-20"/>
     <use x="407.177734" xlink:href="#DejaVuSans-77"/>
     <use x="488.964844" xlink:href="#DejaVuSans-65"/>
     <use x="550.488281" xlink:href="#DejaVuSans-69"/>
     <use x="578.271484" xlink:href="#DejaVuSans-67"/>
     <use x="641.748047" xlink:href="#DejaVuSans-68"/>
     <use x="705.126953" xlink:href="#DejaVuSans-74"/>
     <use x="744.335938" xlink:href="#DejaVuSans-73"/>
     <use x="796.435547" xlink:href="#DejaVuSans-20"/>
     <use x="828.222656" xlink:href="#DejaVuSans-6f"/>
     <use x="889.404297" xlink:href="#DejaVuSans-66"/>
     <use x="924.609375" xlink:href="#DejaVuSans-20"/>
     <use x="956.396484" xlink:href="#DejaVuSans-6d"/>
     <use x="1053.808594" xlink:href="#DejaVuSans-73"/>
     <use x="1105.908203" xlink:href="#DejaVuSans-64"/>
    </g>
   </g>
   <g id="legend_3">
    <g id="patch_19">
     <path d="M 316.684706 302.584 
L 493.398768 302.584 
Q 495.398768 302.584 495.398768 300.584 
L 495.398768 275.708062 
Q 495.398768 273.708062 493.398768 273.708062 
L 316.684706 273.708062 
Q 314.684706 273.708062 314.684706 275.708062 
L 314.684706 300.584 
Q 314.684706 302.584 316.684706 302.584 
z
" style="fill:#ffffff;opacity:0.8;stroke:#cccccc;stroke-linejoin:miter;"/>
    </g>
    <g id="line2d_37">
     <path d="M 318.684706 288.44525 
L 338.684706 288.44525 
" style="fill:none;stroke:#1f77b4;stroke-linecap:square;stroke-width:1.5;"/>
    </g>
    <g id="line2d_38"/>
    <g id="text_40">
     <!-- weight=-0.5 -->
     <g transform="translate(346.684706 285.3065)scale(0.1 -0.1)">
      <use xlink:href="#DejaVuSans-77"/>
      <use x="81.787109" xlink:href="#DejaVuSans-65"/>
      <use x="143.310547" xlink:href="#DejaVuSans-69"/>
      <use x="171.09375" xlink:href="#DejaVuSans-67"/>
      <use x="234.570312" xlink:href="#DejaVuSans-68"/>
      <use x="297.949219" xlink:href="#DejaVuSans-74"/>
      <use x="337.158203" xlink:href="#DejaVuSans-3d"/>
      <use x="420.947266" xlink:href="#DejaVuSans-2d"/>
      <use x="457.03125" xlink:href="#DejaVuSans-30"/>
      <use x="520.654297" xlink:href="#DejaVuSans-2e"/>
      <use x="552.441406" xlink:href="#DejaVuSans-35"/>
     </g>
     <!-- 0.04321765 + 1.35724374·x -->
     <g transform="translate(346.684706 296.504312)scale(0.1 -0.1)">
      <defs>
       <path d="M 2419 4116 
L 825 1625 
L 2419 1625 
L 2419 4116 
z
M 2253 4666 
L 3047 4666 
L 3047 1625 
L 3713 1625 
L 3713 1100 
L 3047 1100 
L 3047 0 
L 2419 0 
L 2419 1100 
L 313 1100 
L 313 1709 
L 2253 4666 
z
" id="DejaVuSans-34" transform="scale(0.015625)"/>
       <path d="M 2113 2584 
Q 1688 2584 1439 2293 
Q 1191 2003 1191 1497 
Q 1191 994 1439 701 
Q 1688 409 2113 409 
Q 2538 409 2786 701 
Q 3034 994 3034 1497 
Q 3034 2003 2786 2293 
Q 2538 2584 2113 2584 
z
M 3366 4563 
L 3366 3988 
Q 3128 4100 2886 4159 
Q 2644 4219 2406 4219 
Q 1781 4219 1451 3797 
Q 1122 3375 1075 2522 
Q 1259 2794 1537 2939 
Q 1816 3084 2150 3084 
Q 2853 3084 3261 2657 
Q 3669 2231 3669 1497 
Q 3669 778 3244 343 
Q 2819 -91 2113 -91 
Q 1303 -91 875 529 
Q 447 1150 447 2328 
Q 447 3434 972 4092 
Q 1497 4750 2381 4750 
Q 2619 4750 2861 4703 
Q 3103 4656 3366 4563 
z
" id="DejaVuSans-36" transform="scale(0.015625)"/>
       <path d="M 2944 4013 
L 2944 2272 
L 4684 2272 
L 4684 1741 
L 2944 1741 
L 2944 0 
L 2419 0 
L 2419 1741 
L 678 1741 
L 678 2272 
L 2419 2272 
L 2419 4013 
L 2944 4013 
z
" id="DejaVuSans-2b" transform="scale(0.015625)"/>
       <path d="M 684 2619 
L 1344 2619 
L 1344 1825 
L 684 1825 
L 684 2619 
z
" id="DejaVuSans-b7" transform="scale(0.015625)"/>
       <path d="M 3513 3500 
L 2247 1797 
L 3578 0 
L 2900 0 
L 1881 1375 
L 863 0 
L 184 0 
L 1544 1831 
L 300 3500 
L 978 3500 
L 1906 2253 
L 2834 3500 
L 3513 3500 
z
" id="DejaVuSans-78" transform="scale(0.015625)"/>
      </defs>
      <use xlink:href="#DejaVuSans-30"/>
      <use x="63.623047" xlink:href="#DejaVuSans-2e"/>
      <use x="95.410156" xlink:href="#DejaVuSans-30"/>
      <use x="159.033203" xlink:href="#DejaVuSans-34"/>
      <use x="222.65625" xlink:href="#DejaVuSans-33"/>
      <use x="286.279297" xlink:href="#DejaVuSans-32"/>
      <use x="349.902344" xlink:href="#DejaVuSans-31"/>
      <use x="413.525391" xlink:href="#DejaVuSans-37"/>
      <use x="477.148438" xlink:href="#DejaVuSans-36"/>
      <use x="540.771484" xlink:href="#DejaVuSans-35"/>
      <use x="604.394531" xlink:href="#DejaVuSans-20"/>
      <use x="636.181641" xlink:href="#DejaVuSans-2b"/>
      <use x="719.970703" xlink:href="#DejaVuSans-20"/>
      <use x="751.757812" xlink:href="#DejaVuSans-31"/>
      <use x="815.380859" xlink:href="#DejaVuSans-2e"/>
      <use x="847.167969" xlink:href="#DejaVuSans-33"/>
      <use x="910.791016" xlink:href="#DejaVuSans-35"/>
      <use x="974.414062" xlink:href="#DejaVuSans-37"/>
      <use x="1038.037109" xlink:href="#DejaVuSans-32"/>
      <use x="1101.660156" xlink:href="#DejaVuSans-34"/>
      <use x="1165.283203" xlink:href="#DejaVuSans-33"/>
      <use x="1228.90625" xlink:href="#DejaVuSans-37"/>
      <use x="1292.529297" xlink:href="#DejaVuSans-34"/>
      <use x="1356.152344" xlink:href="#DejaVuSans-b7"/>
      <use x="1387.939453" xlink:href="#DejaVuSans-78"/>
     </g>
    </g>
   </g>
  </g>
  <g id="text_41">
   <!-- $\gamma$=1.0, nt=2**23, L=100K, nconf=50000 -->
   <g transform="translate(107.64 16.032)scale(0.12 -0.12)">
    <defs>
     <path d="M 1491 2950 
L 1838 788 
L 3456 3500 
L 4066 3500 
L 1972 0 
L 1713 -1331 
L 1138 -1331 
L 1397 0 
L 988 2613 
Q 925 3006 628 3006 
L 475 3006 
L 569 3500 
L 788 3500 
Q 1403 3500 1491 2950 
z
" id="DejaVuSans-Oblique-3b3" transform="scale(0.015625)"/>
     <path d="M 628 4666 
L 1259 4666 
L 1259 531 
L 3531 531 
L 3531 0 
L 628 0 
L 628 4666 
z
" id="DejaVuSans-4c" transform="scale(0.015625)"/>
     <path d="M 628 4666 
L 1259 4666 
L 1259 2694 
L 3353 4666 
L 4166 4666 
L 1850 2491 
L 4331 0 
L 3500 0 
L 1259 2247 
L 1259 0 
L 628 0 
L 628 4666 
z
" id="DejaVuSans-4b" transform="scale(0.015625)"/>
    </defs>
    <use transform="translate(0 0.015625)" xlink:href="#DejaVuSans-Oblique-3b3"/>
    <use transform="translate(59.179688 0.015625)" xlink:href="#DejaVuSans-3d"/>
    <use transform="translate(142.96875 0.015625)" xlink:href="#DejaVuSans-31"/>
    <use transform="translate(206.591797 0.015625)" xlink:href="#DejaVuSans-2e"/>
    <use transform="translate(238.378906 0.015625)" xlink:href="#DejaVuSans-30"/>
    <use transform="translate(302.001953 0.015625)" xlink:href="#DejaVuSans-2c"/>
    <use transform="translate(333.789062 0.015625)" xlink:href="#DejaVuSans-20"/>
    <use transform="translate(365.576172 0.015625)" xlink:href="#DejaVuSans-6e"/>
    <use transform="translate(428.955078 0.015625)" xlink:href="#DejaVuSans-74"/>
    <use transform="translate(468.164062 0.015625)" xlink:href="#DejaVuSans-3d"/>
    <use transform="translate(551.953125 0.015625)" xlink:href="#DejaVuSans-32"/>
    <use transform="translate(615.576172 0.015625)" xlink:href="#DejaVuSans-2a"/>
    <use transform="translate(665.576172 0.015625)" xlink:href="#DejaVuSans-2a"/>
    <use transform="translate(715.576172 0.015625)" xlink:href="#DejaVuSans-32"/>
    <use transform="translate(779.199219 0.015625)" xlink:href="#DejaVuSans-33"/>
    <use transform="translate(842.822266 0.015625)" xlink:href="#DejaVuSans-2c"/>
    <use transform="translate(874.609375 0.015625)" xlink:href="#DejaVuSans-20"/>
    <use transform="translate(906.396484 0.015625)" xlink:href="#DejaVuSans-4c"/>
    <use transform="translate(962.109375 0.015625)" xlink:href="#DejaVuSans-3d"/>
    <use transform="translate(1045.898438 0.015625)" xlink:href="#DejaVuSans-31"/>
    <use transform="translate(1109.521484 0.015625)" xlink:href="#DejaVuSans-30"/>
    <use transform="translate(1173.144531 0.015625)" xlink:href="#DejaVuSans-30"/>
    <use transform="translate(1236.767578 0.015625)" xlink:href="#DejaVuSans-4b"/>
    <use transform="translate(1302.34375 0.015625)" xlink:href="#DejaVuSans-2c"/>
    <use transform="translate(1334.130859 0.015625)" xlink:href="#DejaVuSans-20"/>
    <use transform="translate(1365.917969 0.015625)" xlink:href="#DejaVuSans-6e"/>
    <use transform="translate(1429.296875 0.015625)" xlink:href="#DejaVuSans-63"/>
    <use transform="translate(1484.277344 0.015625)" xlink:href="#DejaVuSans-6f"/>
    <use transform="translate(1545.458984 0.015625)" xlink:href="#DejaVuSans-6e"/>
    <use transform="translate(1608.837891 0.015625)" xlink:href="#DejaVuSans-66"/>
    <use transform="translate(1644.042969 0.015625)" xlink:href="#DejaVuSans-3d"/>
    <use transform="translate(1727.832031 0.015625)" xlink:href="#DejaVuSans-35"/>
    <use transform="translate(1791.455078 0.015625)" xlink:href="#DejaVuSans-30"/>
    <use transform="translate(1855.078125 0.015625)" xlink:href="#DejaVuSans-30"/>
    <use transform="translate(1918.701172 0.015625)" xlink:href="#DejaVuSans-30"/>
    <use transform="translate(1982.324219 0.015625)" xlink:href="#DejaVuSans-30"/>
   </g>
  </g>
 </g>
 <defs>
  <clipPath id="p6787c9e551">
   <rect height="266.112" width="105.035294" x="57.6" y="41.472"/>
  </clipPath>
  <clipPath id="p457129109e">
   <rect height="266.112" width="105.035294" x="183.642353" y="41.472"/>
  </clipPath>
  <clipPath id="p031e5ec109">
   <rect height="266.112" width="105.035294" x="309.684706" y="41.472"/>
  </clipPath>
 </defs>
</svg>
